HIERARCHY
ROOT Hips
{
 OFFSET 0.000000 0.000000 0.000000
 CHANNELS 6 Xposition Yposition Zposition Yrotation Xrotation Zrotation
 JOINT Chest
 {
  OFFSET 0.000000 9.588913 -0.003946
  CHANNELS 3 Yrotation Xrotation Zrotation
  JOINT Chest2
  {
   OFFSET 0.000000 9.541882 0.008053
   CHANNELS 3 Yrotation Xrotation Zrotation
   JOINT Chest3
   {
    OFFSET 0.000000 9.501360 0.000000
    CHANNELS 3 Yrotation Xrotation Zrotation
    JOINT Chest4
    {
     OFFSET 0.000000 9.491660 0.000000
     CHANNELS 3 Yrotation Xrotation Zrotation
     JOINT Neck
     {
      OFFSET 0.000000 14.331917 0.000000
      CHANNELS 3 Yrotation Xrotation Zrotation
      JOINT Head
      {
       OFFSET 0.000000 8.884799 0.017034
       CHANNELS 3 Yrotation Xrotation Zrotation
       End Site
       {
        OFFSET 0.000000 16.896195 0.008993
       }
      }
     }
     JOINT RightCollar
     {
      OFFSET -2.923010 9.499495 0.000000
      CHANNELS 3 Yrotation Xrotation Zrotation
      JOINT RightShoulder
      {
       OFFSET -13.795216 0.000000 0.000000
       CHANNELS 3 Yrotation Xrotation Zrotation
       JOINT RightElbow
       {
        OFFSET -30.272209 0.000000 0.000000
        CHANNELS 3 Yrotation Xrotation Zrotation
        JOINT RightWrist
        {
         OFFSET -24.478199 0.000000 0.000000
         CHANNELS 3 Yrotation Xrotation Zrotation
         End Site
         {
          OFFSET -18.090752 0.000000 0.000000
         }
        }
       }
      }
     }
     JOINT LeftCollar
     {
      OFFSET 2.923010 9.499495 0.000000
      CHANNELS 3 Yrotation Xrotation Zrotation
      JOINT LeftShoulder
      {
       OFFSET 13.795216 0.000000 0.000000
       CHANNELS 3 Yrotation Xrotation Zrotation
       JOINT LeftElbow
       {
        OFFSET 30.272209 0.000000 0.000000
        CHANNELS 3 Yrotation Xrotation Zrotation
        JOINT LeftWrist
        {
         OFFSET 24.478199 0.000000 0.000000
         CHANNELS 3 Yrotation Xrotation Zrotation
         End Site
         {
          OFFSET 18.090752 0.000000 0.000000
         }
        }
       }
      }
     }
    }
   }
  }
 }
 JOINT RightHip
 {
  OFFSET -7.826875 0.019532 0.001973
  CHANNELS 3 Yrotation Xrotation Zrotation
  JOINT RightKnee
  {
   OFFSET 0.000000 -40.546152 -0.001885
   CHANNELS 3 Yrotation Xrotation Zrotation
   JOINT RightAnkle
   {
    OFFSET 0.000000 -39.417092 -0.003189
    CHANNELS 3 Yrotation Xrotation Zrotation
    JOINT RightToe
    {
     OFFSET 0.000000 -7.579396 17.243563
     CHANNELS 3 Yrotation Xrotation Zrotation
     End Site
     {
      OFFSET 0.000000 -1.500329 6.694466
     }
    }
   }
  }
 }
 JOINT LeftHip
 {
  OFFSET 7.826875 0.019532 0.001973
  CHANNELS 3 Yrotation Xrotation Zrotation
  JOINT LeftKnee
  {
   OFFSET 0.000000 -40.546152 -0.001885
   CHANNELS 3 Yrotation Xrotation Zrotation
   JOINT LeftAnkle
   {
    OFFSET 0.000000 -39.417092 -0.003189
    CHANNELS 3 Yrotation Xrotation Zrotation
    JOINT LeftToe
    {
     OFFSET 0.000000 -7.579396 17.243563
     CHANNELS 3 Yrotation Xrotation Zrotation
     End Site
     {
      OFFSET 0.000000 -1.500329 6.694466
     }
    }
   }
  }
 }
}
MOTION
Frames: 14
Frame Time: 0.008333
0.000000 87.345680 0.000000 0.000000 -5.767889 0.000000 0.000000 11.653876 0.000000 0.000000 -5.885988 0.000000 0.000000 -0.000000 0.000000 0.000000 -0.000000 0.000000 0.000000 12.528808 0.000000 0.000000 0.711711 0.000000 0.000000 -0.000000 0.000000 0.000000 -0.000000 0.000000 2.309063 -0.000000 0.000000 -2.309063 -0.000000 -0.000000 0.000000 -0.000000 0.000000 0.000000 0.000000 0.000000 -2.309063 0.000000 0.000000 2.309063 -0.000000 0.000000 0.000000 8.520374 0.000000 0.000000 1.905768 0.000000 -0.000000 -4.658254 0.000000 0.000000 -0.000000 0.000000 0.000000 8.520374 0.000000 0.000000 1.905768 0.000000 -0.000000 -4.658254 0.000000 0.000000 -0.000000 0.000000
-0.592333 88.929983 20.125820 -54.400827 -8.134618 0.591131 -0.374589 2.409510 0.259513 -0.200644 1.374755 0.173177 -0.250174 1.718538 0.215734 -0.200644 1.374755 0.173177 3.718769 29.316830 -0.810832 4.311763 7.003876 -1.741261 1.853999 0.206410 0.839362 2.168537 -1.123384 88.896419 1.833495 -14.740585 0.435427 0.095846 3.447380 0.590716 9.585785 1.575760 -2.078197 -1.457074 -1.000577 -89.570738 -0.431693 6.294481 -0.156363 -2.749762 -3.309144 4.371564 -5.432327 12.175395 -7.445129 -0.246058 1.386014 -1.085036 1.156777 -5.066646 4.134706 -0.018861 -0.006075 0.004969 6.225317 11.509645 3.114332 12.928521 -0.489971 0.322430 -2.458262 -2.981042 -2.541640 0.014994 0.047790 0.007756
-0.591580 88.929342 20.126716 -54.417493 -8.138207 0.590429 -0.368916 2.409379 0.258009 -0.196998 1.374728 0.172837 -0.245617 1.718501 0.215323 -0.196998 1.374728 0.172837 3.717808 29.324771 -0.809995 4.310629 7.014292 -1.740119 1.846787 0.210685 0.845361 2.132422 -1.126369 88.886610 1.825907 -14.716389 0.454276 0.060648 3.455631 0.607164 9.582862 1.581551 -2.070477 -1.442353 -1.001275 -89.580418 -0.449859 6.294776 -0.151084 -2.761089 -3.323316 4.385612 -5.430524 12.170575 -7.446304 -0.235309 1.400549 -1.087295 1.162069 -5.077527 4.133774 -0.018648 -0.005442 0.005145 6.237514 11.514424 3.117781 12.937953 -0.491319 0.316641 -2.457140 -2.984833 -2.540651 0.014577 0.051584 0.010157
-0.590149 88.928541 20.127767 -54.430283 -8.141745 0.590552 -0.364235 2.408797 0.256437 -0.194183 1.374360 0.172407 -0.242099 1.718040 0.214796 -0.194183 1.374360 0.172407 3.717384 29.334567 -0.808762 4.310034 7.027182 -1.738662 1.839096 0.214295 0.852012 2.108868 -1.127162 88.872375 1.816382 -14.702066 0.476527 0.021805 3.466236 0.620738 9.582578 1.590593 -2.062174 -1.434130 -1.003991 -89.590948 -0.471821 6.292319 -0.145776 -2.769133 -3.333231 4.401348 -5.425903 12.166764 -7.448527 -0.232640 1.414972 -1.088061 1.166765 -5.088512 4.133794 -0.019170 -0.004851 0.004296 6.246530 11.516408 3.120047 12.948080 -0.488812 0.312527 -2.462667 -2.990764 -2.541505 0.014441 0.055399 0.012889
-0.588131 88.927614 20.128817 -54.442606 -8.145597 0.591473 -0.361205 2.407374 0.254860 -0.192371 1.373444 0.171760 -0.239837 1.716894 0.213994 -0.192371 1.373444 0.171760 3.718745 29.346643 -0.807633 4.311498 7.043195 -1.737728 1.836955 0.219404 0.859830 2.094547 -1.125303 88.857903 1.806461 -14.694448 0.497265 -0.011040 3.474235 0.628251 9.584484 1.603870 -2.054923 -1.429095 -1.010084 -89.599783 -0.497221 6.291443 -0.142553 -2.774556 -3.337541 4.426130 -5.415007 12.163785 -7.452490 -0.232447 1.429898 -1.085003 1.167707 -5.099989 4.132017 -0.019892 -0.003956 0.003814 6.252488 11.516297 3.119168 12.955893 -0.482953 0.312648 -2.465919 -2.998604 -2.543694 0.014691 0.059072 0.014828
-0.585608 88.926597 20.129715 -54.454087 -8.149696 0.592805 -0.360345 2.405617 0.253515 -0.191746 1.372577 0.171049 -0.239059 1.715810 0.213109 -0.191746 1.372577 0.171049 3.721419 29.359503 -0.807254 4.314616 7.060350 -1.737928 1.841245 0.224705 0.868161 2.089020 -1.121662 88.843274 1.796103 -14.696918 0.512765 -0.029935 3.477867 0.631451 9.587233 1.617439 -2.052012 -1.426617 -1.018382 -89.604677 -0.523924 6.299229 -0.137633 -2.787325 -3.340653 4.464555 -5.399691 12.161394 -7.457570 -0.232831 1.445118 -1.079651 1.166328 -5.111648 4.129076 -0.020102 -0.003014 0.003775 6.254269 11.515381 3.115130 12.962836 -0.476698 0.316641 -2.467557 -3.006118 -2.545627 0.014881 0.062133 0.014985
-0.582740 88.925534 20.130232 -54.466606 -8.153566 0.593792 -0.359859 2.404878 0.252210 -0.191235 1.372427 0.170619 -0.238422 1.715622 0.212573 -0.191235 1.372427 0.170619 3.724671 29.370336 -0.807517 4.318493 7.074879 -1.738969 1.847077 0.224704 0.876249 2.094459 -1.114516 88.828120 1.787118 -14.711544 0.522321 -0.033278 3.476626 0.634886 9.590784 1.625271 -2.053626 -1.424990 -1.026854 -89.605560 -0.546856 6.320594 -0.126820 -2.804929 -3.340666 4.501946 -5.381745 12.158580 -7.461571 -0.234268 1.460170 -1.075500 1.166491 -5.122046 4.127276 -0.020180 -0.002574 0.003465 6.257776 11.513391 3.112717 12.968418 -0.469515 0.321032 -2.476240 -3.013073 -2.545835 0.013978 0.064142 0.012956
-0.579683 88.924475 20.130208 -54.480456 -8.156569 0.593647 -0.357961 2.405162 0.250858 -0.189962 1.372580 0.170461 -0.236832 1.715813 0.212380 -0.189962 1.372580 0.170461 3.727936 29.378230 -0.807470 4.322266 7.085514 -1.739667 1.849903 0.219454 0.883442 2.107478 -1.102619 88.817412 1.783880 -14.733221 0.524414 -0.025665 3.470694 0.637636 9.593185 1.628984 -2.056981 -1.424297 -1.037915 -89.602721 -0.559091 6.350986 -0.111579 -2.810092 -3.334530 4.512124 -5.363634 12.154107 -7.463491 -0.237225 1.475561 -1.072720 1.169812 -5.131339 4.125069 -0.020396 -0.002346 0.003788 6.264380 11.509581 3.113646 12.973102 -0.460663 0.321783 -2.485745 -3.019972 -2.542281 0.012464 0.065859 0.009851
-0.576399 88.923504 20.130069 -54.487980 -8.159087 0.593689 -0.356219 2.405724 0.249571 -0.189057 1.372516 0.170025 -0.235701 1.715731 0.211838 -0.189057 1.372516 0.170025 3.729357 29.383926 -0.806517 4.323730 7.093102 -1.738937 1.850649 0.214404 0.889282 2.123892 -1.090944 88.812458 1.784454 -14.753136 0.520349 -0.011010 3.453262 0.637847 9.592406 1.632272 -2.059609 -1.427665 -1.052166 -89.595859 -0.559176 6.383342 -0.098742 -2.795784 -3.333674 4.488386 -5.359341 12.148782 -7.468329 -0.235861 1.490179 -1.068944 1.175281 -5.140301 4.121351 -0.020349 -0.001902 0.004719 6.263479 11.504946 3.112970 12.976037 -0.452394 0.319198 -2.485009 -3.024934 -2.534874 0.011910 0.067521 0.006880
-0.573130 88.922713 20.130070 -54.488417 -8.162387 0.594058 -0.356270 2.406193 0.248747 -0.189469 1.372297 0.169530 -0.236219 1.715458 0.211218 -0.189469 1.372297 0.169530 3.729636 29.388204 -0.805594 4.323902 7.098750 -1.737978 1.854067 0.213562 0.894013 2.137515 -1.084079 88.808870 1.783790 -14.763790 0.513270 0.009706 3.426115 0.633189 9.592780 1.634318 -2.061005 -1.436197 -1.066048 -89.587758 -0.549351 6.411283 -0.091366 -2.766628 -3.348269 4.446422 -5.369604 12.144881 -7.477009 -0.227895 1.502549 -1.064114 1.182360 -5.148474 4.117224 -0.020125 -0.001569 0.005595 6.255612 11.501706 3.111598 12.976764 -0.446235 0.314300 -2.480587 -3.027087 -2.525975 0.012679 0.068693 0.004615
-0.570214 88.922166 20.130183 -54.489792 -8.167510 0.594145 -0.357047 2.407147 0.248336 -0.190391 1.372448 0.169354 -0.237372 1.715647 0.210994 -0.190391 1.372448 0.169354 3.730544 29.390955 -0.805556 4.324955 7.102442 -1.738145 1.860560 0.215661 0.898891 2.149054 -1.079797 88.804775 1.786576 -14.784089 0.501697 0.030181 3.418118 0.624734 9.595520 1.633486 -2.062269 -1.445755 -1.078851 -89.581445 -0.531674 6.425434 -0.087386 -2.733360 -3.367980 4.407364 -5.374421 12.143200 -7.484544 -0.221406 1.515596 -1.059456 1.187309 -5.156912 4.113725 -0.020254 -0.001413 0.005951 6.249686 11.502922 3.112637 12.978504 -0.444354 0.307679 -2.482109 -3.026550 -2.518010 0.014150 0.069362 0.003395
-0.567630 88.921894 20.130661 -54.492074 -8.175284 0.594638 -0.358264 2.409225 0.247986 -0.191476 1.373445 0.169245 -0.238728 1.716893 0.210854 -0.191476 1.373445 0.169245 3.731642 29.391799 -0.806647 4.326447 7.103659 -1.739608 1.866117 0.217444 0.904250 2.161254 -1.075964 88.799970 1.794634 -14.816989 0.489008 0.045134 3.433169 0.614216 9.596690 1.630710 -2.064460 -1.451186 -1.089927 -89.576194 -0.512849 6.424472 -0.087058 -2.709292 -3.385010 4.382485 -5.371496 12.145391 -7.490877 -0.219482 1.528401 -1.055700 1.189717 -5.165172 4.111812 -0.020762 -0.001603 0.005488 6.244415 11.509983 3.112270 12.980933 -0.448551 0.303350 -2.484527 -3.023097 -2.513382 0.015711 0.069892 0.003828
-0.565189 88.921862 20.131450 -54.495511 -8.184996 0.595473 -0.358727 2.411995 0.247946 -0.191842 1.375035 0.169410 -0.239184 1.718881 0.211058 -0.191842 1.375035 0.169410 3.731962 29.391490 -0.809305 4.327413 7.103358 -1.742634 1.865771 0.217435 0.907621 2.168905 -1.073321 88.793677 1.799475 -14.827971 0.483925 0.056791 3.436123 0.601871 9.593701 1.629249 -2.067934 -1.451013 -1.099961 -89.570238 -0.499555 6.415004 -0.092008 -2.696326 -3.402477 4.364775 -5.367012 12.150862 -7.497607 -0.221420 1.538646 -1.052193 1.195442 -5.171517 4.110440 -0.021419 -0.002430 0.004887 6.241217 11.519448 3.109542 12.981619 -0.454076 0.302347 -2.481401 -3.019575 -2.512238 0.016276 0.070664 0.006095
-0.562444 88.921983 20.132346 -54.502352 -8.194259 0.597317 -0.357375 2.414847 0.247484 -0.190904 1.376712 0.169461 -0.238010 1.720977 0.211124 -0.190904 1.376712 0.169461 3.732018 29.391267 -0.812264 4.328154 7.103166 -1.745935 1.858684 0.215445 0.908529 2.170568 -1.072954 88.786716 1.796999 -14.811524 0.487140 0.065701 3.422455 0.591397 9.588154 1.629784 -2.071186 -1.449214 -1.111406 -89.562642 -0.492647 6.400593 -0.102797 -2.692489 -3.421753 4.346527 -5.359960 12.154379 -7.505169 -0.224992 1.550772 -1.047901 1.201608 -5.177961 4.108771 -0.022185 -0.003252 0.004193 6.242800 11.525944 3.106143 12.982366 -0.454173 0.302239 -2.478032 -3.019493 -2.511948 0.015512 0.071518 0.008591
